<?xml version="1.0" encoding="utf-8"?><svg xmlns="http://www.w3.org/2000/svg" xmlns:xlink="http://www.w3.org/1999/xlink"><symbol viewBox="0 0 128 20" id="cai-logo" xmlns="http://www.w3.org/2000/svg"><path fill-rule="evenodd" clip-rule="evenodd" d="M6.861 0c3.129 0 5.653 1.696 5.653 4.414 0 1.858-1.043 3.23-1.454 3.23-.383 0-2.36-1.184-2.36-1.534 0-.134.385-.754.385-1.373 0-1.13-.797-1.938-2.169-1.938-1.344 0-2.305.888-2.305 2.207 0 1.4 1.537 2.235 3.54 3.231l.472.239.472.242c2.51 1.3 4.875 2.794 4.875 5.522 0 3.472-3.075 5.76-7.163 5.76C2.799 20 0 18.035 0 14.509c0-2.262 1.428-4.011 1.756-4.011.44 0 2.334 1.292 2.334 1.642 0 .215-.66.915-.66 2.1 0 1.75 1.483 2.934 3.486 2.934 2.086 0 3.403-1.211 3.403-2.854 0-1.561-1.372-2.45-4.39-3.876-2.635-1.238-4.886-2.557-4.886-5.518C1.043 2.154 3.486 0 6.86 0zm86.476 0c3.294 0 5.38 2.207 5.38 5.06 0 2.827-2.168 5.007-4.967 5.76a1.892 1.892 0 01-.522.082c-.357 0-1.208-2.127-1.208-2.477 0-.107.083-.188.22-.242 1.92-.754 3.101-1.75 3.101-3.257 0-1.157-.713-1.992-2.058-1.992-2.8 0-4.83 3.634-4.83 7.537 0 3.983 2.634 6.595 6.175 6.595 2.56 0 4.527-1.277 5.585-2.995a8.5 8.5 0 01-.042-.854c0-3.769 2.471-6.596 5.874-6.596 1.728 0 2.936.62 3.787 1.373l.083-.027v-.35c0-.403.274-.646.631-.646h2.113c.411 0 .659.243.659.7 0 .512-.302 4.415-.302 6.542 0 1.21.494 2.207 1.454 2.207 1.342 0 2.482-1.657 3.13-3.146l-.001-5.63c0-.403.219-.672.631-.672h2.196c.439 0 .686.242.686.7 0 1.507-.138 5.383-.138 6.406 0 1.373.467 2.342 1.592 2.342 1.51 0 2.8-1.938 3.294-3.31.055-.135.109-.216.274-.216.247 0 1.866.726 1.866 1.023a.92.92 0 01-.055.269c-.768 2.314-2.799 5.168-6.147 5.168-1.82 0-3.114-.767-3.75-2.182-1.026 1.193-2.505 2.182-4.483 2.182-1.976 0-3.404-.916-3.404-2.476v-.27l-.109-.026c-.687 1.48-2.223 2.772-4.611 2.772-1.882 0-3.38-.875-4.291-2.34C99.651 18.704 97.269 20 94.16 20c-5.57 0-9.357-3.741-9.357-9.475C84.803 4.71 88.26 0 93.337 0zM54.614.565c.467 0 .686.269.686.727 0 1.777-.356 10.148-.356 12.948 0 1.237.438 2.18 1.537 2.18 1.412 0 2.6-1.834 3.183-3.148V7.644c0-.403.22-.672.63-.672h2.197c.439 0 .685.242.685.7 0 1.507-.136 5.383-.136 6.406 0 1.373.466 2.342 1.59 2.342 1.17 0 2.206-1.16 2.844-2.322a7.154 7.154 0 01-.07-1.016c0-3.715 2.743-6.46 6.833-6.46 3.924 0 6.477 2.745 6.477 6.245 0 3.203-2.306 6.487-6.862 6.487-2.334 0-4.174-.943-5.28-2.467-1.075 1.378-2.64 2.467-4.71 2.467-1.815 0-3.107-.764-3.745-2.172-1.074 1.229-2.585 2.172-4.46 2.172-2.278 0-3.87-1.05-3.87-2.665v-.215l-.11-.027c-.685 1.427-2.195 2.907-4.555 2.907-1.904 0-3.387-.864-4.298-2.285-1.072 1.298-2.606 2.285-4.594 2.285-2.224 0-3.595-1.158-3.595-2.746 0-.134 0-.35.027-.43l-.11-.028c-.74 1.59-2.278 3.204-4.748 3.204-1.77 0-2.982-.814-3.588-2.197-1.083 1.23-2.669 2.197-4.864 2.197-2.992 0-5.023-1.938-5.023-4.845V9.69h-.713c-.412 0-.604-.135-.604-.538V7.644c0-.296.137-.511.494-.511h.823V4.064c0-.457.248-.726.66-.726h2.085c.439 0 .658.269.658.726v3.123c.879-.027 1.921-.054 2.58-.054.247 0 .44.135.44.43v1.643c0 .377-.165.484-.467.484-.632 0-1.646-.027-2.553-.027v3.5c0 2.046.55 3.257 2.333 3.257 1.933 0 3.177-1.905 3.705-3.2V7.67c0-.483.247-.699.686-.699h2.14c.467 0 .687.27.687.674 0 1.669-.137 4.44-.137 6.245 0 1.695.41 2.53 1.646 2.53 1.921 0 3.568-3.769 3.568-7.834v-.915c0-.43.192-.7.659-.7h2.168c.466 0 .686.243.686.7 0 .477-.118 2.2-.2 3.954l-.023.553c-.03.735-.052 1.452-.052 2.061 0 1.184.494 2.181 1.51 2.181 1.133 0 2.112-1.184 2.738-2.298a8.75 8.75 0 01-.049-.932c0-3.526 2.278-6.569 5.956-6.569 1.701 0 3.239.808 4.089 1.454l.11-.026V1.265c0-.458.22-.7.631-.7h2.031zm19.568 8.749c-2.058 0-3.211 1.857-3.211 3.741 0 2.046 1.207 3.608 3.073 3.608 2.004 0 3.075-1.777 3.075-3.904 0-1.911-.989-3.445-2.937-3.445zm-25.331.242c-2.004 0-3.513 1.588-3.513 3.822 0 1.857 1.015 3.042 2.497 3.042 2.416 0 3.705-3.473 3.705-5.68-.576-.539-1.564-1.184-2.69-1.184zm58.374 0c-2.004 0-3.513 1.588-3.513 3.85 0 1.802 1.016 3.014 2.443 3.014 2.579 0 3.76-3.634 3.76-5.68-.577-.539-1.565-1.184-2.69-1.184zM61.475 1.21c1.015 0 1.866.565 1.866 1.722 0 1.105-.74 1.885-1.976 1.885-1.07 0-1.81-.727-1.81-1.857 0-1.023.794-1.75 1.92-1.75zm57.935 0c1.016 0 1.866.565 1.866 1.722 0 1.105-.74 1.885-1.976 1.885-1.07 0-1.811-.727-1.811-1.857 0-1.023.796-1.75 1.921-1.75z"/></symbol><symbol viewBox="0 0 24 24" id="cart" xmlns="http://www.w3.org/2000/svg"><path d="M1.44 0C.645 0 0 .614 0 1.371c0 .758.645 1.372 1.44 1.372h1.756l.44 1.676c.004.02.01.039.015.058l1.954 7.445-1.285 1.224c-1.814 1.728-.53 4.683 2.036 4.683H18.72c.795 0 1.44-.614 1.44-1.372 0-.757-.645-1.371-1.44-1.371H6.356l1.44-1.372h9.484a1.45 1.45 0 001.288-.758l4.32-8.228c.223-.426.2-.93-.063-1.335a1.458 1.458 0 00-1.225-.65H6.164l-.447-1.704C5.557.429 4.981 0 4.32 0H1.44zM20.16 21.257c0 1.136-.967 2.057-2.16 2.057s-2.16-.92-2.16-2.057c0-1.136.967-2.057 2.16-2.057s2.16.921 2.16 2.057zM6.48 23.314c1.193 0 2.16-.92 2.16-2.057 0-1.136-.967-2.057-2.16-2.057s-2.16.921-2.16 2.057.967 2.057 2.16 2.057z"/></symbol><symbol viewBox="0 0 128 36" id="chill-industries-logo" xmlns="http://www.w3.org/2000/svg"><path fill-rule="evenodd" clip-rule="evenodd" d="M52.992.022c.059.059.074.146.044.264-.03.264-.088.675-.176 1.232 3.707-.059 6.576.073 8.606.395.206.03.25.148.133.353-.324.558-.913.821-1.766.792-2.148-.089-4.532-.044-7.15.132-.441 4.987-.661 10.633-.661 16.94 0 5.34.19 9.578.572 12.716 3.267-.089 3.63-.004 5.572.32.235.028.294.146.177.35-.325.558-.898.837-1.722.837-2.648-.03-3.233.119-6.233.428-2.11.22-4.097.5-6.185 1.175-.177.059-.294.059-.353 0-.03-.058-.03-.176 0-.352.294-1.173.853-1.878 1.677-2.112 1.824-.528 3.122-.531 5.434-.602a2.23 2.23 0 01-.484-1.145c-.237-2.082-.353-4.972-.353-8.667 0-8.096.367-14.682 1.103-19.756-2.943.235-5.62.675-8.033 1.32-.206.06-.338.06-.397 0-.088-.059-.103-.176-.044-.352.293-1.115.838-1.775 1.633-1.98 1.47-.381 3.854-.645 7.15-.792.235-.762.647-1.26 1.235-1.496.118-.03.192-.03.221 0zM11.475.814c2.5-.03 4.355 1.16 5.561 3.564.912 1.789 1.31 3.74 1.192 5.852-.148 2.523-.942 3.99-2.383 4.4-.177.06-.295.073-.353.044-.06-.058-.06-.19 0-.395.293-1.169.441-2.441.441-3.815 0-2.28-.383-4.223-1.147-5.831-.824-1.754-1.898-2.601-3.222-2.544-1.884.06-3.825 1.7-5.827 4.921-2.206 3.633-3.353 7.777-3.441 12.434-.06 3.779.617 6.833 2.03 9.162 1.411 2.328 3.324 3.463 5.737 3.403 1.942-.03 3.641-.872 5.098-2.529 1.452-1.652 3.225-4.23 3.263-7.597.111-5.728.558-10.301 1.34-13.722.205-.908.602-1.466 1.191-1.671.177-.06.28-.06.31 0 0 .03-.015.117-.044.264-.737 4.107-1.104 9.768-1.104 16.983v3.653c.622-3.021 1.498-5.544 2.626-7.569.267-.498.578-.747.935-.747.237 0 .505.118.8.352.594.47.891 1.291.891 2.464-.06 5.192.338 7.92 1.192 8.184.353.117.735-.199 1.147-.946.211-.384.382-.813.516-1.286-.04-.375-.066-.774-.075-1.2-.03-2.083.205-3.901.706-5.456.206-.645.588-1.026 1.148-1.144.117 0 .22.058.31.176a26.579 26.579 0 00-.575 5.5c0 3.167.353 4.87 1.059 5.104.412.147.905-.22 1.48-1.1.573-.88.977-1.995 1.212-3.345.008-.037.017-.07.025-.1-.221-1.366-.334-2.972-.334-4.827 0-2.61.25-5.515.75-8.712.736-4.43 1.707-6.644 2.913-6.644.382 0 .75.235 1.104.704.795.997 1.19 2.655 1.19 4.972 0 2.287-.366 4.62-1.102 6.995-.794 2.464-1.78 4.225-2.957 5.282.235 4.458.986 6.687 2.252 6.687.557 0 1.146-.419 1.764-1.254.54-.73.971-1.63 1.309-2.682-.282-1.474-.427-3.25-.427-5.348 0-2.61.25-5.515.75-8.712.736-4.43 1.706-6.644 2.913-6.644.383 0 .751.235 1.104.704.794.997 1.192 2.655 1.192 4.972 0 2.287-.368 4.62-1.104 6.995-.795 2.464-1.78 4.225-2.957 5.282.236 4.458.986 6.687 2.25 6.687.56 0 1.149-.419 1.767-1.254.618-.837 1.103-1.885 1.456-3.146.088-.264.177-.293.264-.089.148.265.177.793.089 1.584-.089.998-.383 1.893-.883 2.685-.589.996-1.354 1.496-2.294 1.496-.266 0-.53-.044-.795-.132-1.32-.372-2.288-1.524-2.911-3.44a5.822 5.822 0 01-.796 2.076c-.589.996-1.353 1.496-2.295 1.496-.265 0-.53-.044-.794-.132-1.372-.386-2.365-1.612-2.984-3.664-.078.951-.318 1.769-.723 2.454-.53.895-1.192 1.342-1.986 1.342a1.91 1.91 0 01-.662-.132c-.845-.302-1.467-.954-1.872-1.953-.325.86-.892 1.292-1.703 1.292-.206 0-.413-.043-.617-.131-1.472-.499-2.34-1.628-2.605-3.388-.176-1.203-.265-3.345-.265-6.425-.06-.409-.165-.454-.314-.131-1.522 3.256-2.417 6.82-2.687 10.691-.029.323-.172.441-.432.353-.92-.324-1.424-1.07-1.51-2.244a50.967 50.967 0 01-.139-2.553c-.543 1.399-1.324 2.624-2.19 3.52-1.413 1.467-3.194 2.259-5.34 2.377-2.826.146-5.283-.866-7.372-3.036C1.207 27.816.03 24.457.001 20.173c-.03-5.25 1.235-9.84 3.796-13.771C6.15 2.735 8.71.872 11.474.814zm84.618 9.02c.117-.03.19-.03.22 0 .03.029.03.117 0 .264-.206 1.056-.426 2.552-.662 4.488 2.677-.059 5.046.079 7.107.41.146.03.176.122.087.273-.294.425-.721.623-1.279.593a69.217 69.217 0 00-6.047 0 92.052 92.052 0 00-.485 7.24c-.119 5 .367 7.5 1.456 7.5.442 0 .912-.352 1.413-1.057.42-.592.746-1.374.98-2.342.037-.28.076-.566.122-.87.323-2.111.514-3.563.574-4.356-.912-.468-1.339-1.304-1.28-2.508.03-.82.206-1.48.53-1.979.265-.41.558-.617.883-.617.705 0 1.058 1.364 1.058 4.092 1.441.09 2.737-.645 3.884-2.2.177-.264.398-.264.662 0 .441.47.662.925.662 1.365 0 .206-.044.425-.132.66a17.459 17.459 0 00-1.589 7.348c0 1.935.397 2.904 1.192 2.904 1.013 0 1.894-1.21 2.641-3.622-.018-.25-.032-.507-.037-.778-.03-2.083.205-3.901.706-5.456.205-.645.588-1.027 1.147-1.145.117 0 .221.06.309.177a26.62 26.62 0 00-.573 5.5c0 3.168.352 4.87 1.059 5.104.411.147.904-.22 1.478-1.1.348-.534.625-1.164.849-1.87a7.425 7.425 0 01-.209-1.782c0-.557.058-1.129.176-1.717.324-1.818.868-3.255 1.633-4.312.706-.938 1.471-1.407 2.295-1.407.382 0 .75.117 1.104.351 1 .705 1.5 1.717 1.5 3.037 0 .47-.059.953-.177 1.451-.295 1.233-.89 2.215-1.787 2.95-.897.732-1.847 1.129-2.847 1.187.177 1.672.633 2.64 1.368 2.904.206.087.442.131.707.131.853 0 1.714-.388 2.582-1.165.624-.56 1.129-1.253 1.517-2.079l-.127-.495c-.236-.94-.162-1.613.221-2.025.176-.175.323.132.441.925.764-3.96 1.823-6.57 3.177-7.832.264-.264.544-.396.838-.396.354 0 .691.176 1.016.528.176.205.146.395-.088.572-.413.351-.618.924-.618 1.715 0 1.233.455 2.876 1.368 4.929.588 1.379.882 2.538.882 3.475 0 .969-.309 1.738-.926 2.31-.618.573-1.31.859-2.075.859-1.5 0-2.707-1.013-3.618-3.036-.06.147-.177.308-.354.484-.023.018-.043.027-.063.039-.241.44-.534.833-.885 1.171-.78.747-1.699 1.122-2.759 1.122a4.377 4.377 0 01-1.589-.308c-.735-.293-1.368-.865-1.897-1.716a5.664 5.664 0 01-.188-.31 4.966 4.966 0 01-.518 1.256c-.53.895-1.192 1.341-1.986 1.341-.206 0-.428-.043-.662-.131-.975-.349-1.657-1.161-2.046-2.44-.49 1.95-1.368 2.923-2.632 2.923-1.148 0-2.016-.63-2.605-1.89-.471-.97-.705-2.069-.705-3.301 0-1.643.338-3.447 1.015-5.412-.707.324-1.516.484-2.428.484h-.353c-.03.56-.132 1.9-.309 4.02-.148 1.769-.221 3.154-.221 4.154 0 .766.044 1.443.133 2.032.029.148 0 .236-.089.266-.059.058-.161.058-.308 0-.75-.24-1.167-.897-1.258-1.962-.48.69-1.09 1.038-1.83 1.038-.207 0-.428-.03-.663-.088-1.206-.295-2.03-1.145-2.471-2.553-.353-1.202-.486-3.138-.398-5.807.06-2.434.309-4.929.75-7.48a31.02 31.02 0 00-3.265.44c-.147.029-.236 0-.265-.088-.058-.059-.058-.132 0-.22.118-.675.559-1.056 1.324-1.145.53-.057 1.324-.116 2.383-.175.353-1.73.647-2.992.883-3.785.147-.528.47-.88.971-1.056zM74.06 6.005c.117-.03.19-.03.22 0 .06.03.073.103.044.22-1.03 5.31-1.516 11.015-1.456 17.116.029 1.76.088 3.123.176 4.092.177 2.054.515 3.183 1.016 3.388.352.147.764-.205 1.235-1.056.24-.433.445-.94.615-1.516a17.16 17.16 0 01-.13-2.18c0-2.053.266-4.062.794-6.029.236-.88.647-1.363 1.237-1.451.147-.03.25-.03.308 0 .03.03.03.117 0 .264-.382 1.965-.573 4.121-.573 6.468 0 1.907.16 3.3.486 4.18.264.733.662 1.1 1.19 1.1.824 0 1.398-1.481 1.722-4.444l.618-5.5c.147-.85.603-1.365 1.368-1.54.147-.03.25-.015.309.044.03.03.03.118 0 .264-.324 2.375-.485 4.531-.485 6.468 0 3.022.41 4.531 1.236 4.531.323 0 .669-.388 1.037-1.165a8.5 8.5 0 00.596-1.84 35.699 35.699 0 00-.133-.514c-.235-.94-.162-1.613.22-2.025.177-.175.324.132.442.925.766-3.96 1.824-6.57 3.177-7.832.266-.264.545-.396.84-.396.352 0 .69.176 1.015.528.176.205.146.395-.089.572-.412.351-.618.924-.618 1.715 0 1.233.456 2.876 1.368 4.929.588 1.379.883 2.538.883 3.475 0 .969-.31 1.738-.926 2.31-.618.573-1.31.859-2.075.859-1.425 0-2.584-.915-3.478-2.739-.268 1.618-.976 2.43-2.127 2.43-1.207 0-2.074-.835-2.604-2.508-.382 1.263-.986 2.128-1.81 2.597a2.243 2.243 0 01-1.147.307c-.648 0-1.177-.249-1.589-.747a3.904 3.904 0 01-.517-.88c-.404 1.085-1.027 1.627-1.866 1.627-.206 0-.412-.028-.618-.087-1.412-.47-2.31-1.79-2.692-3.96-.413 2.61-1.457 3.916-3.134 3.916-1.206 0-2.133-.53-2.78-1.59a4.795 4.795 0 01-.162-.29c-.039.088-.08.172-.124.252-.398.704-.935 1.056-1.612 1.056-1.736 0-2.78-1.159-3.133-3.477-.176-1.2-.265-3.344-.265-6.424-.06-.41-.162-.454-.308-.132-1.472 3.228-2.384 6.69-2.737 10.385-.03.323-.162.454-.397.395-.912-.175-1.398-.645-1.456-1.407-.148-1.496-.177-3.388-.089-5.677.089-2.464.265-4.384.53-5.763.147-.733.53-1.188 1.147-1.365.147-.029.25-.029.31 0 .058.03.072.118.043.265-.412 2.787-.544 5.955-.397 9.504.676-3.227 1.544-5.78 2.604-7.657.294-.528.603-.791.927-.791.5 0 .927.294 1.28.88.265.44.398 1.1.398 1.98-.06 5.192.337 7.906 1.19 8.14.412.117.824-.227 1.237-1.034.119-.234.217-.483.305-.737a7.853 7.853 0 01-.13-1.457c0-.795.09-1.648.265-2.56.382-1.943.985-3.458 1.81-4.547.823-1.089 1.662-1.634 2.516-1.634.794 0 1.485.5 2.073 1.497.354-5.28.987-9.577 1.899-12.893.117-.41.44-.688.97-.835zm-4.426 13.508c-.505-.117-1.093.44-1.761 1.672-.67 1.232-1.122 2.684-1.36 4.356-.089.645-.133 1.247-.133 1.803 0 1.116.156 1.989.468 2.618.312.632.661.962 1.047.99.654.06 1.322-.674 2.006-2.2.742-1.7 1.084-3.635 1.025-5.808-.03-.996-.194-1.832-.49-2.508-.239-.556-.506-.864-.802-.924zm54.66 1.1c-.648 1.027-1.397 3.314-2.251 6.864.47.997 1.074 1.79 1.81 2.375.647.528 1.25.792 1.809.792.618 0 .927-.336.927-1.01 0-.588-.397-1.805-1.192-3.654-.794-1.847-1.191-3.314-1.191-4.4 0-.351.029-.673.088-.967zm-35.273 0c-.648 1.027-1.398 3.314-2.25 6.864.47.997 1.072 1.79 1.809 2.375.647.528 1.25.792 1.809.792.618 0 .926-.336.926-1.01 0-.588-.397-1.805-1.19-3.654-.796-1.847-1.193-3.314-1.193-4.4 0-.351.03-.673.089-.967zm28.477-.793c-.471-.116-1.001.368-1.589 1.452-.647 1.174-1.045 2.538-1.192 4.093-.058.675-.073 1.173-.043 1.496 1.058-.235 1.912-.982 2.559-2.244a7.1 7.1 0 00.795-3.3c0-.909-.177-1.409-.53-1.497zM37.153 7.898c-.325-.176-.707.865-1.148 3.123-.441 2.26-.736 4.724-.883 7.393a89.71 89.71 0 00-.088 4.4c1.706-2.698 2.56-6.584 2.56-11.66 0-2.025-.148-3.109-.441-3.256zm6.796 0c-.325-.176-.707.865-1.148 3.123-.441 2.26-.736 4.724-.882 7.393a89.71 89.71 0 00-.089 4.4c1.707-2.698 2.56-6.584 2.56-11.66 0-2.025-.148-3.109-.441-3.256zm-13.814 9.02c.559-.088.883.22.971.924.059.41-.03.763-.264 1.056-.236.294-.515.47-.84.528-.323.058-.588-.007-.793-.197-.207-.191-.28-.478-.221-.86.117-.879.5-1.363 1.147-1.451zm80.731 0c.557-.088.881.22.97.924.058.41-.03.763-.265 1.056-.235.294-.515.47-.838.528-.324.058-.589-.007-.795-.197-.206-.191-.28-.478-.22-.86.116-.879.5-1.363 1.148-1.451z"/></symbol><symbol viewBox="0 0 24 24" id="edit" xmlns="http://www.w3.org/2000/svg"><path fill-rule="evenodd" clip-rule="evenodd" d="M2.88 0A2.88 2.88 0 000 2.88v15.84a4.32 4.32 0 008.64 0V2.88A2.88 2.88 0 005.76 0H2.88zm1.44 20.16a1.44 1.44 0 100-2.88 1.44 1.44 0 000 2.88z"/><path d="M11.52 17.63l7.055-7.056a2.88 2.88 0 000-4.073L16.54 4.465a2.88 2.88 0 00-4.073 0l-.946.945v12.22zM20.16 23.04h-9.978l8.64-8.64h1.338a2.88 2.88 0 012.88 2.88v2.88a2.88 2.88 0 01-2.88 2.88z"/></symbol><symbol viewBox="0 0 114 56" id="gkdc-logo" xmlns="http://www.w3.org/2000/svg"><path fill-rule="evenodd" clip-rule="evenodd" d="M15.08 16.017c3.96 0 7.918.585 11.879.585 3.202 0 3.61.818 3.61 1.87 0 1.403-.758 1.87-3.087 1.988h-2.33c2.33 2.396 3.612 5.67 3.612 9.001 0 4.444-1.865 8.536-5.65 10.697 3.378.995 6.465 3.45 6.465 6.722 0 5.497-5.357 9.12-15.547 9.12C5.124 56 .699 54.013.699 50.856c0-2.922 3.551-4.676 5.88-4.676 1.107 0 1.922.35 1.922 1.052 0 .525-.583 1.11-.583 1.87 0 1.053.932 2.573 6.347 2.573 5.88 0 7.976-2.105 7.976-4.443 0-2.338-2.037-4.033-4.133-4.97-1.456.526-2.97.645-3.901.645C5.939 42.907 0 37.997 0 30.046c0-9.236 6.113-14.029 15.08-14.029zM83.84 0c1.631 0 2.097.352 2.097 2.105v36.768c0 2.923 2.794 2.513 2.794 3.858 0 1.286-.465 1.811-2.794 1.811H81.63c-2.68 0-2.562-1.285-2.738-3.449-2.329 2.807-5.064 4.034-9.374 4.034-8.85 0-12.46-6.546-12.46-13.912 0-8.3 5.706-15.198 14.265-15.198 2.796 0 4.716.76 7.045 2.338V7.6c0-2.864-3.26-2.222-3.26-4.21 0-.818.757-1.403 1.397-1.636C77.436 1.403 82.212 0 83.84 0zm18.631 16.017c5.473 0 10.771 2.806 10.771 6.08 0 1.636-1.339 2.805-3.667 2.805-1.548 0-2.252-1.203-3.004-2.507l-.206-.357c-.838-1.432-1.827-2.864-4.127-2.864-3.96 0-6.872 4.676-6.872 11.866 0 6.138 3.728 9.88 8.095 9.88 5.532 0 7.161-4.503 9.082-4.503.817 0 1.456.585 1.456 1.403 0 2.515-5.24 7.307-12.228 7.307-8.267 0-14.44-5.728-14.44-14.146 0-8.71 6.523-14.964 15.14-14.964zM37.204 0C39.01 0 39.3 1.228 39.3 3.858v25.604c2.213-1.11 9.49-6.722 9.49-8.827 0-1.345-2.91-.76-2.91-2.63 0-.994.582-1.403 1.514-1.403h8.268c1.396 0 2.213.467 2.213 1.403 0 1.637-1.63 1.345-3.843 3.449-2.096 2.046-5.474 5.436-6.055 6.254 3.959 3.975 6.637 7.482 9.548 12.51.932 1.577 3.028 1.285 3.028 2.923 0 1.05-.757 1.402-1.805 1.402h-9.957c-1.281 0-1.863-.818-1.863-1.636 0-1.287 1.63-1.169 1.63-1.872 0-1.05-3.727-6.43-5.939-9.235L39.3 34.138v4.56c0 3.858 2.737 2.045 2.737 4.266 0 .994-.64 1.579-2.155 1.579H31.15c-1.514 0-2.154-.585-2.154-1.579 0-.987.54-1.177 1.14-1.423l.182-.076c.7-.305 1.414-.795 1.414-2.768V7.6c0-2.864-3.144-2.22-3.144-3.974 0-.877.873-1.053 1.514-1.403C31.44 1.52 35.574 0 37.204 0zm35.05 19.758c-4.017 0-7.161 3.274-7.161 10.697 0 7.424 3.144 10.698 7.161 10.698 3.145 0 6.114-2.572 6.114-5.495V25.37c0-3.624-2.736-5.612-6.114-5.612zm-57.873-.234c-3.551 0-6.346 3.39-6.346 9.82s2.795 9.822 6.346 9.822c3.552 0 6.347-3.392 6.347-9.822s-2.795-9.82-6.347-9.82z"/></symbol><symbol viewBox="0 0 128 28" id="glassware-logo" xmlns="http://www.w3.org/2000/svg"><path fill-rule="evenodd" clip-rule="evenodd" d="M5.307 7.799c1.239 0 2.28.582 3.124 1.748V8.16h3.693V20.46c0 .739-.034 1.398-.102 1.981a10.33 10.33 0 01-.285 1.545 5.216 5.216 0 01-.766 1.583 5.547 5.547 0 01-1.255 1.274c-.49.36-1.045.643-1.662.849-.62.206-1.29.308-2.011.308-.817 0-1.567-.128-2.246-.385A5.659 5.659 0 01.755 24.95a6.174 6.174 0 01-.653-1.994h4.166c.258.875.841 1.312 1.753 1.312.777 0 1.372-.275 1.788-.823.413-.55.622-1.313.622-2.292v-1.26a6.725 6.725 0 01-.786.811c-.252.215-.508.39-.766.528-.259.136-.53.236-.816.295-.286.06-.599.09-.94.09a4.41 4.41 0 01-2.06-.487 4.925 4.925 0 01-1.623-1.365c-.457-.584-.81-1.283-1.062-2.099C.127 16.853 0 15.947 0 14.954c0-1.013.137-1.953.409-2.82.272-.864.644-1.62 1.111-2.265a5.362 5.362 0 011.675-1.518A4.186 4.186 0 015.307 7.8zm30.27-.129c1.155 0 2.277.283 3.366.848l-1.244 3.038c-.681-.446-1.348-.668-2-.668-.342 0-.618.085-.827.256-.213.172-.316.403-.316.695 0 .155.015.28.05.373a.607.607 0 00.223.271c.116.087.287.162.511.23.225.069.52.155.89.258 1.02.258 1.782.716 2.285 1.377.503.662.755 1.507.755 2.536 0 .772-.122 1.466-.368 2.083a4.33 4.33 0 01-1.02 1.557c-.435.422-.96.747-1.573.978a5.651 5.651 0 01-2.018.348c-1.416 0-2.813-.506-4.185-1.518l1.346-3.295c1.034.892 2.014 1.339 2.939 1.339.34 0 .619-.094.838-.283a.911.911 0 00.326-.721c0-.17-.017-.313-.051-.424a.681.681 0 00-.215-.31 1.583 1.583 0 00-.478-.257 8.977 8.977 0 00-.828-.244c-1.143-.291-1.941-.726-2.398-1.3-.456-.574-.684-1.367-.684-2.38 0-.737.11-1.402.326-1.995.219-.593.53-1.094.94-1.504.407-.413.901-.73 1.48-.953a5.327 5.327 0 011.93-.335zm9.163 0c1.156 0 2.28.284 3.368.849l-1.246 3.037c-.679-.445-1.347-.67-2-.67-.34 0-.616.087-.826.257a.851.851 0 00-.316.697c0 .153.017.278.05.373a.649.649 0 00.224.27c.116.086.286.163.511.231.224.068.52.155.888.257 1.02.258 1.781.716 2.286 1.377.505.661.756 1.506.756 2.535 0 .772-.123 1.467-.369 2.085a4.36 4.36 0 01-1.02 1.556c-.435.421-.96.746-1.571.978a5.656 5.656 0 01-2.02.347c-1.416 0-2.811-.504-4.185-1.517l1.346-3.294c1.034.891 2.014 1.337 2.94 1.337.34 0 .619-.093.838-.282a.917.917 0 00.324-.72c0-.173-.015-.314-.05-.426a.67.67 0 00-.214-.308 1.592 1.592 0 00-.48-.257 8.384 8.384 0 00-.827-.245c-1.142-.292-1.942-.726-2.398-1.3-.456-.574-.683-1.368-.683-2.38 0-.738.108-1.402.326-1.995a4.13 4.13 0 01.938-1.505 4.164 4.164 0 011.48-.952c.58-.224 1.221-.336 1.93-.336zm74.865 0c1.303 0 2.477.168 3.521.5 1.043.336 1.926.822 2.648 1.455a6.256 6.256 0 011.655 2.33c.381.918.571 1.95.571 3.102v.487h-11.465c0 2.008 1.104 3.012 3.311 3.012 1.182 0 2.076-.412 2.678-1.235h5.265c-1.062 3.02-3.722 4.528-7.974 4.528-1.303 0-2.498-.166-3.581-.501-1.084-.335-2.011-.81-2.785-1.429a6.466 6.466 0 01-1.788-2.211c-.422-.859-.633-1.82-.633-2.885 0-1.097.2-2.087.603-2.972.4-.883.971-1.633 1.715-2.252.741-.616 1.639-1.093 2.692-1.428 1.054-.333 2.243-.502 3.567-.502zm-97.094.077c1.308 0 2.39.575 3.246 1.724V8.16h3.715v13.202h-3.715v-1.467c-.789 1.252-1.857 1.877-3.204 1.877-.761 0-1.463-.175-2.102-.526a5.249 5.249 0 01-1.675-1.48c-.476-.636-.846-1.382-1.111-2.24-.266-.856-.399-1.793-.399-2.805 0-.944.13-1.84.388-2.69.259-.847.619-1.59 1.082-2.225A5.389 5.389 0 0120.389 8.3a4.176 4.176 0 012.122-.552zm64.386 0c1.927 0 3.521.575 4.784 1.724V8.16h5.478v13.202H91.68v-1.467c-1.164 1.252-2.737 1.877-4.724 1.877-1.125 0-2.157-.175-3.099-.526a7.578 7.578 0 01-2.468-1.48 6.802 6.802 0 01-1.64-2.24 6.68 6.68 0 01-.587-2.805c0-.944.191-1.84.573-2.69.38-.847.912-1.59 1.594-2.225.682-.634 1.494-1.135 2.437-1.507.943-.368 1.987-.552 3.13-.552zM16.657 0v21.362H12.96V0h3.695zm93.396 7.875c.17 0 .366.019.586.051v4.454a5.896 5.896 0 00-2.347-.464c-1.263 0-2.211.322-2.843.965-.633.642-.948 1.583-.948 2.818v5.663h-5.447V8.16h5.447v2.16a5.904 5.904 0 012.136-1.814c.843-.419 1.825-.631 2.95-.631h.466zm-54.328.284l3.7 6.948L63.28 8.16h3.43l3.851 7.154 3.882-7.154h6.049l-8.065 13.202h-3.641l-3.851-7.232-3.672 7.232h-3.703L49.647 8.159h6.078zm-32.234 3.603c-.34 0-.656.076-.947.231a2.244 2.244 0 00-.755.644c-.212.275-.38.588-.502.94a3.473 3.473 0 00-.183 1.144c0 .429.061.828.183 1.197.122.368.29.69.502.965.208.274.46.49.755.643.291.156.608.233.947.233.328 0 .636-.077.93-.233a2.3 2.3 0 00.754-.643c.212-.275.381-.592.511-.951.13-.361.195-.746.195-1.16 0-.411-.065-.801-.195-1.171-.13-.368-.3-.689-.51-.964a2.306 2.306 0 00-.756-.644 1.959 1.959 0 00-.929-.23zm64.85 0c-.5 0-.968.076-1.399.231a3.41 3.41 0 00-1.114.644c-.31.275-.556.588-.737.94-.18.35-.27.733-.27 1.144 0 .429.09.828.27 1.197.181.368.426.69.737.965.313.274.683.49 1.114.643.43.156.898.233 1.399.233.483 0 .938-.077 1.37-.233a3.37 3.37 0 001.113-.643c.312-.275.562-.592.752-.951a2.512 2.512 0 000-2.33 3.28 3.28 0 00-1.865-1.609 4.029 4.029 0 00-1.37-.23zm-82.115-.051c-.327 0-.632.082-.92.244a2.733 2.733 0 00-.754.643c-.216.266-.39.578-.52.94-.13.36-.195.746-.195 1.158 0 .429.062.828.184 1.196.122.369.29.69.501.966.21.274.462.487.755.642.292.156.608.232.95.232.325 0 .634-.076.929-.232a2.32 2.32 0 00.754-.642c.212-.276.38-.598.51-.966a3.5 3.5 0 00.194-1.171c0-.427-.065-.823-.194-1.182a3.33 3.33 0 00-.52-.954 2.445 2.445 0 00-.766-.644 1.933 1.933 0 00-.908-.23zm113.529-1.029c-.843 0-1.53.189-2.062.565-.53.378-.866.91-1.007 1.595h6.228a2.776 2.776 0 00-1.113-1.57c-.562-.395-1.244-.59-2.046-.59z"/></symbol><symbol viewBox="0 0 92 56" id="hooq-logo" xmlns="http://www.w3.org/2000/svg"><path fill-rule="evenodd" clip-rule="evenodd" d="M3.27 0a3.27 3.27 0 013.272 3.268v12.92a13.864 13.864 0 017.41-2.134c4.284 0 8.121 1.938 10.684 4.984a13.928 13.928 0 0110.682-4.984c4.283 0 8.122 1.938 10.682 4.984a13.93 13.93 0 0110.683-4.984c4.282 0 8.12 1.938 10.682 4.984a13.928 13.928 0 0110.682-4.984C85.741 14.054 92 20.308 92 28v24.73A3.269 3.269 0 0188.73 56a3.269 3.269 0 01-3.27-3.27V39.81a13.875 13.875 0 01-7.413 2.136 13.93 13.93 0 01-10.682-4.985c-2.561 3.045-6.4 4.985-10.682 4.985-4.284 0-8.122-1.94-10.683-4.985a13.93 13.93 0 01-10.682 4.985c-7.693 0-13.951-6.256-13.951-13.946 0-4.086-3.326-7.41-7.414-7.41-4.087 0-7.411 3.324-7.411 7.41v10.677a3.27 3.27 0 01-6.542 0V3.267A3.27 3.27 0 013.27 0zm32.048 20.59c-4.088 0-7.412 3.324-7.412 7.41 0 4.084 3.324 7.407 7.412 7.407S42.73 32.084 42.73 28c0-4.086-3.323-7.41-7.41-7.41zm21.365 0c-4.087 0-7.414 3.324-7.414 7.41 0 4.084 3.327 7.407 7.414 7.407s7.411-3.323 7.411-7.407c0-4.086-3.324-7.41-7.41-7.41zm21.364 0c-4.086 0-7.412 3.324-7.412 7.41 0 4.084 3.326 7.407 7.412 7.407 4.08 0 7.402-3.312 7.413-7.387v-.026c-.005-4.083-3.328-7.403-7.413-7.403zM35.32 25.754c2.102 0 4.003.858 5.37 2.245a7.515 7.515 0 01-5.37 2.249 7.516 7.516 0 01-5.372-2.249 7.513 7.513 0 015.372-2.245zm21.364 0c2.103 0 4.004.858 5.372 2.245a7.522 7.522 0 01-5.372 2.249 7.52 7.52 0 01-5.373-2.249 7.52 7.52 0 015.373-2.245z"/></symbol><symbol viewBox="0 0 24 24" id="instagram-icon" xmlns="http://www.w3.org/2000/svg"><path fill-rule="evenodd" clip-rule="evenodd" d="M16 3H8a5 5 0 00-5 5v8a5 5 0 005 5h8a5 5 0 005-5V8a5 5 0 00-5-5zm3.25 13A3.26 3.26 0 0116 19.25H8A3.26 3.26 0 014.75 16V8A3.26 3.26 0 018 4.75h8A3.26 3.26 0 0119.25 8v8zm-2.5-7.75a1 1 0 100-2 1 1 0 000 2zM12 7.5a4.5 4.5 0 104.5 4.5A4.49 4.49 0 0012 7.5zM9.25 12a2.75 2.75 0 105.5 0 2.75 2.75 0 00-5.5 0z"/></symbol><symbol viewBox="0 0 24 24" id="layout" xmlns="http://www.w3.org/2000/svg"><path d="M1.333 2.667c0-.737.597-1.334 1.334-1.334h18.666c.737 0 1.334.597 1.334 1.334v2.666c0 .737-.597 1.334-1.334 1.334H2.667a1.333 1.333 0 01-1.334-1.334V2.667zM1.333 13.333c0-.736.597-1.333 1.334-1.333h8c.736 0 1.333.597 1.333 1.333v8c0 .737-.597 1.334-1.333 1.334h-8a1.333 1.333 0 01-1.334-1.334v-8zM17.333 13.333c0-.736.597-1.333 1.334-1.333h2.666c.737 0 1.334.597 1.334 1.333v8c0 .737-.597 1.334-1.334 1.334h-2.666a1.333 1.333 0 01-1.334-1.334v-8z"/></symbol><symbol viewBox="0 0 24 24" id="linkedin-icon" xmlns="http://www.w3.org/2000/svg"><path fill-rule="evenodd" clip-rule="evenodd" d="M5 3h14a2 2 0 012 2v14a2 2 0 01-2 2H5a2 2 0 01-2-2V5a2 2 0 012-2zm3 15a.5.5 0 00.5-.5v-7A.5.5 0 008 10H6.5a.5.5 0 00-.5.5v7a.5.5 0 00.5.5H8zm-.75-9a1.5 1.5 0 110-3 1.5 1.5 0 010 3zm10.25 9a.5.5 0 00.5-.5v-4.6a3.1 3.1 0 00-2.72-3.14 3 3 0 00-2.78 1.34v-.6a.5.5 0 00-.5-.5h-1.5a.5.5 0 00-.5.5v7a.5.5 0 00.5.5H12a.5.5 0 00.5-.5v-3.75a1.5 1.5 0 013 0v3.75a.5.5 0 00.5.5h1.5z"/></symbol><symbol viewBox="0 0 24 24" id="picture" xmlns="http://www.w3.org/2000/svg"><path d="M1.333 17.333l6.115-6.114a2.667 2.667 0 013.771 0l6.114 6.114h-16zm13.334-2.666l2.114-2.115a2.667 2.667 0 013.771 0l2.115 2.115h-8zm0-8h.013-.013zM4 22.667h16A2.667 2.667 0 0022.667 20V4A2.667 2.667 0 0020 1.333H4A2.667 2.667 0 001.333 4v16A2.667 2.667 0 004 22.667z"/></symbol><symbol viewBox="0 0 24 24" id="publish" xmlns="http://www.w3.org/2000/svg"><path d="M5.04 15.71C2.256 15.71 0 13.657 0 11.126 0 8.76 1.975 6.812 4.509 6.571a4.797 4.797 0 01-.189-1.335C4.32 2.344 6.899 0 10.08 0c2.706 0 4.975 1.696 5.594 3.982.29-.036.585-.055.886-.055 3.579 0 6.48 2.638 6.48 5.891 0 3.254-2.901 5.891-6.48 5.891h-3.6v-4.694l1.862 1.692a1.543 1.543 0 002.036 0 1.227 1.227 0 000-1.85l-4.32-3.928a1.544 1.544 0 00-2.036 0l-4.32 3.927a1.227 1.227 0 000 1.851 1.544 1.544 0 002.036 0l1.862-1.692v4.694H5.04z"/><path d="M10.08 15.709h2.88v6.545c0 .723-.645 1.31-1.44 1.31-.795 0-1.44-.587-1.44-1.31V15.71z"/></symbol><symbol viewBox="0 0 128 32" id="stockholm-logo" xmlns="http://www.w3.org/2000/svg"><path fill-rule="evenodd" clip-rule="evenodd" d="M9.596 16.817v3.262H4.125c-.134 0-.224.113-.224.247v2.227c0 .09.09.202.224.202h3.901c1.053 0 1.771.72 1.771 1.777v5.69C9.797 31.28 9.08 32 8.026 32H0v-3.285h5.672c.157 0 .246-.089.246-.202V26.31c0-.113-.089-.202-.246-.202h-3.9C.717 26.107 0 25.387 0 24.33v-5.736c0-1.057.718-1.777 1.771-1.777h7.825zm13.453 0v3.284h-3.431V32h-3.901V20.1h-3.43v-3.284h10.761zm12.308 0c1.054 0 1.772.72 1.772 1.777v11.628c0 1.058-.718 1.778-1.772 1.778h-7.78c-1.054 0-1.771-.72-1.771-1.778V18.594c0-1.057.717-1.777 1.771-1.777h7.78zm15.134 0c.965 0 1.772.788 1.772 1.71v3.914h-3.901v-2.115c0-.135-.113-.247-.202-.247h-2.847a.249.249 0 00-.247.247v8.165c0 .135.112.224.247.224h2.847c.09 0 .202-.09.202-.224v-2.16h3.901v3.936c0 .99-.807 1.733-1.772 1.733h-7.6a1.702 1.702 0 01-1.727-1.733v-11.74c0-.922.763-1.71 1.727-1.71h7.6zM55.119 0c.286 0 .567.029.844.079V.075l.06.013.09.02a4.511 4.511 0 01.715.215 4.677 4.677 0 01.487.22c.05.026.096.055.146.084.07.04.14.081.208.125l.163.11c.06.043.12.088.178.135a3.867 3.867 0 01.344.295c.036.034.074.064.11.1a4.735 4.735 0 011.384 3.357h.004l.012 18.389 3.924-6.32h4.349l-4.373 6.59 4.552 8.591h-4.26l-2.959-5.802-1.233 2.002v3.8h-3.901V4.75a.853.853 0 00-.249-.6.835.835 0 00-.595-.247.833.833 0 00-.597.247l-.71.716-2.751 2.757-2.749-2.757-.713-.716a.835.835 0 00-.597-.247c-.129 0-.38.03-.595.247a.848.848 0 000 1.196l.713.716 2.748 2.757 1.193 1.197 1.192-1.197L54.667 6.4v5.516l-3.606 3.618-7.406-7.429a4.766 4.766 0 010-6.713A4.691 4.691 0 0147.002 0c1.264 0 2.454.494 3.349 1.392l.71.713.71-.713A4.691 4.691 0 0155.119 0zm19.676 16.817v5.803h3.7v-5.803h3.901V32h-3.9v-6.028h-3.7V32h-3.902V16.817h3.901zm21.323 0c1.053 0 1.77.72 1.77 1.777v11.628c0 1.058-.717 1.778-1.77 1.778h-7.78c-1.054 0-1.771-.72-1.771-1.778V18.594c0-1.057.717-1.777 1.771-1.777h7.78zm9.821 0v11.898h4.82V32h-8.699V16.817h3.879zm12.084 0l3.049 7.085 2.803-7.085H128V32h-3.677v-8.75l-2.556 6.028h-1.525l-2.577-5.87v8.591h-3.588V16.818h3.946zm-85.042 3.284h-3.072c-.09 0-.202.113-.202.248v8.164c0 .113.112.202.202.202h3.072c.134 0 .246-.089.246-.202V20.35a.25.25 0 00-.246-.248zm60.76 0h-3.072c-.09 0-.2.113-.2.248v8.164c0 .113.11.202.2.202h3.072c.134 0 .247-.089.247-.202V20.35a.25.25 0 00-.247-.248z"/></symbol><symbol viewBox="0 0 24 24" id="twitter-icon" xmlns="http://www.w3.org/2000/svg"><path d="M20.973 6.717a7.19 7.19 0 01-1.663 1.6v.495a10.972 10.972 0 01-3.258 7.822A10.96 10.96 0 018.194 19.8a10.994 10.994 0 01-4.898-1.133.225.225 0 01-.134-.207v-.099c0-.129.104-.233.233-.233a7.96 7.96 0 004.601-1.655 3.927 3.927 0 01-3.495-2.301.234.234 0 01.233-.324c.46.046.923.004 1.366-.126A3.92 3.92 0 013 10.296a.234.234 0 01.323-.234c.448.197.931.302 1.42.306a3.849 3.849 0 01-1.536-4.442.485.485 0 01.817-.162 11.105 11.105 0 007.558 3.489 3.604 3.604 0 01-.108-.9 3.917 3.917 0 016.749-2.643 7.807 7.807 0 002.148-.746c.05-.03.112-.03.162 0 .03.05.03.113 0 .162a3.928 3.928 0 01-1.582 1.798 7.709 7.709 0 001.797-.431.144.144 0 01.162 0 .153.153 0 01.063.224z"/></symbol><symbol viewBox="0 0 24 24" id="typography" xmlns="http://www.w3.org/2000/svg"><path fill-rule="evenodd" clip-rule="evenodd" d="M.8 3c0-.994.716-1.8 1.6-1.8h19.2c.884 0 1.6.806 1.6 1.8s-.716 1.8-1.6 1.8H2.4C1.516 4.8.8 3.994.8 3zM.8 12c0-.994.716-1.8 1.6-1.8h19.2c.884 0 1.6.806 1.6 1.8s-.716 1.8-1.6 1.8H2.4c-.884 0-1.6-.806-1.6-1.8zM.8 21c0-.994.716-1.8 1.6-1.8H12c.884 0 1.6.806 1.6 1.8s-.716 1.8-1.6 1.8H2.4c-.884 0-1.6-.806-1.6-1.8z"/></symbol></svg>