<?xml version="1.0" encoding="utf-8"?><svg xmlns="http://www.w3.org/2000/svg" xmlns:xlink="http://www.w3.org/1999/xlink"><symbol fill="none" viewBox="0 0 160 160" id="logo-no-name" xmlns="http://www.w3.org/2000/svg"><path d="M56.163 54.393l13.95 24.295-13.95 24.295H28.282L14.37 78.688l13.95-24.295h27.881-.038zm7.209-12.47h-42.26L0 78.699l21.111 36.774h42.223l21.111-36.774-21.111-36.774h.038z" fill="#FFC147"/><path d="M130.634 97.641l13.95 24.295-13.95 24.296h-27.881l-13.95-24.296 13.95-24.295h27.881zm7.171-12.469H95.582l-21.14 36.764 21.112 36.784h42.222l21.111-36.784-21.082-36.774v.01z" fill="#794EFF"/><path d="M129.747 12.68l13.064 22.76-13.064 22.76h-26.126L90.557 35.44l13.064-22.76h26.126zM136.918.21H96.46L76.235 35.46 96.46 70.707h40.467l20.225-35.249L136.927.21h-.009z" fill="#97E747"/></symbol><symbol fill="none" viewBox="0 0 160 41" id="logo-with-name" xmlns="http://www.w3.org/2000/svg"><g clip-path="url(#bclip0_1_6)"><path d="M14.48 13.922l3.596 6.237-3.596 6.236H7.29L3.705 20.16 7.3 13.922h7.188-.01zm1.858-3.2H5.443L0 20.162 5.443 29.6h10.885l5.443-9.44-5.443-9.44h.01z" fill="#FFC147"/><path d="M33.68 25.024l3.596 6.236-3.597 6.237h-7.188l-3.597-6.237 3.597-6.236h7.188zm1.848-3.2H24.642l-5.45 9.436 5.443 9.442H35.52l5.443-9.442-5.435-9.44v.003z" fill="#794EFF"/><path d="M33.45 3.215l3.368 5.842L33.45 14.9h-6.735l-3.368-5.843 3.368-5.842h6.735zm1.85-3.2H24.867l-5.214 9.047 5.214 9.048h10.434l5.214-9.048L35.302.014h-.003z" fill="#97E747"/><path d="M67.474 13.58a4.845 4.845 0 012.114 1.864c.588.886.882 2.075.882 3.568v8.25H66v-8.263c0-.719-.21-1.243-.622-1.575a2.292 2.292 0 00-1.475-.493 1.74 1.74 0 00-1.394.635c-.361.426-.539 1.071-.539 1.938v7.758H57.52v-8.263c0-.719-.208-1.244-.622-1.575a2.287 2.287 0 00-1.475-.493 1.754 1.754 0 00-1.394.623c-.359.414-.538 1.064-.538 1.95v7.758h-4.45v-13.82h4.447v.739a4.792 4.792 0 013.07-1.128c.821.004 1.633.172 2.388.493.817.342 1.514.92 2.003 1.66a6.213 6.213 0 011.81-1.552c.692-.4 1.477-.61 2.276-.608.84.01 1.67.192 2.439.534zM75.166 26.703a7.284 7.284 0 01-2.665-2.656 7.332 7.332 0 010-7.328 7.32 7.32 0 0112.648 0 7.349 7.349 0 010 7.328 7.3 7.3 0 01-2.665 2.656 7.309 7.309 0 01-7.318 0zm5.674-4.301a2.838 2.838 0 000-4.038 2.78 2.78 0 00-2.028-.83 2.841 2.841 0 00-2.628 1.759 2.855 2.855 0 00.616 3.104 2.844 2.844 0 002.012.835 2.776 2.776 0 002.028-.83zM91.873 23.052c.22.139.479.202.737.18.11 0 .386-.018.829-.055v4.085c-.76.111-1.525.176-2.291.194-1.326 0-2.316-.345-2.97-1.036-.654-.691-.982-1.922-.983-3.693V7.91h4.444v14.492a.795.795 0 00.234.65zM105.017 14.023a6.762 6.762 0 012.498 2.627 7.655 7.655 0 01.898 3.718c.012.52-.034 1.04-.138 1.549h-9.72c.606 1.313 1.683 1.97 3.232 1.97.497 0 .989-.099 1.448-.289a2.71 2.71 0 001.119-.817l3.37 1.992a6.574 6.574 0 01-2.527 2.157 7.885 7.885 0 01-3.493.738 8.12 8.12 0 01-3.99-.953 6.71 6.71 0 01-2.665-2.627 7.458 7.458 0 01-.94-3.72 7.56 7.56 0 01.925-3.72 6.714 6.714 0 012.596-2.627 7.53 7.53 0 013.796-.955 6.789 6.789 0 013.591.957zm-.767 4.479a1.725 1.725 0 00-.966-1.19 4.536 4.536 0 00-3.906.057c-.58.313-.88.692-.897 1.133h5.769zM122.688 24.554a7.277 7.277 0 01-2.581 2.297 7.336 7.336 0 01-7.056-.153 7.269 7.269 0 01-3.636-6.315c0-1.286.339-2.55.981-3.664a7.288 7.288 0 012.665-2.656 7.172 7.172 0 013.673-.985 7.023 7.023 0 013.353.83 7.468 7.468 0 012.584 2.24l-3.688 2.462c-.664-.719-1.409-1.078-2.237-1.078a2.783 2.783 0 00-2.03.83 2.827 2.827 0 00-.843 2.018 2.834 2.834 0 00.843 2.02 2.777 2.777 0 002.03.829c.808 0 1.554-.368 2.237-1.105l3.705 2.43zM132.659 13.442h4.447v13.82h-4.447v-.773a4.828 4.828 0 01-3.087 1.167 6.179 6.179 0 01-2.444-.524 4.83 4.83 0 01-2.112-1.855c-.59-.883-.885-2.072-.885-3.567v-8.268h4.474v8.268c0 .719.208 1.245.622 1.578.42.331.941.505 1.475.493a1.785 1.785 0 001.424-.623c.359-.414.538-1.064.538-1.95l-.005-7.766zM143.456 23.052c.22.139.479.202.737.18.111 0 .389-.018.829-.055v4.085c-.759.111-1.524.176-2.291.194-1.326 0-2.316-.345-2.97-1.036-.654-.691-.982-1.922-.983-3.693V7.91h4.445v14.492a.793.793 0 00.233.65zM156.613 14.023a6.788 6.788 0 012.5 2.627 7.661 7.661 0 01.885 3.718c.012.52-.035 1.04-.14 1.549h-9.72c.608 1.313 1.685 1.97 3.232 1.97.499-.01.991-.118 1.448-.318.438-.17.823-.453 1.119-.818l3.38 2.002a6.574 6.574 0 01-2.527 2.157 7.885 7.885 0 01-3.493.738 8.119 8.119 0 01-3.99-.952 6.714 6.714 0 01-2.665-2.627 7.463 7.463 0 01-.949-3.7 7.56 7.56 0 01.924-3.721 6.717 6.717 0 012.596-2.627 7.53 7.53 0 013.799-.955 6.78 6.78 0 013.601.957zm-.774 4.479a1.727 1.727 0 00-.966-1.19 4.545 4.545 0 00-3.907.057c-.58.313-.88.692-.897 1.133h5.77z" fill="#794EFF"/></g><defs><clipPath id="bclip0_1_6"><path fill="#fff" d="M0 0h160v41H0z"/></clipPath></defs></symbol></svg>